<svg xmlns="http://www.w3.org/2000/svg" width="72" height="72" fill="none"><g clip-path="url(#a)"><path fill="#FCEA2B" d="M5.632 37.446A34.945 34.945 0 0 1 9.69 21.744c.484 7.601 4.07 10.662 5.85 10.662 1.33 0 2.552-1.355 2.552-3.565.092-2.854.527-7.74 4.344-14.802.324.19.692.293 1.068.298C25 14.337 27.407 12.72 25.431.6c0 0 14.681 9.895 14.13 26.28a2.01 2.01 0 0 0 2.163 2.117 5.35 5.35 0 0 0 4.142-2.783 21.559 21.559 0 0 1 2.25 10.089c0 12.543-7.785 22.358-21.078 22.358-11.839 0-21.406-9.974-21.406-20.871"/><path fill="#F1B31C" d="M27.197 21.878c-.4 1.535-1.729 4.091-5.584 8.489-.133.103-.133.205-.266.307-.4.716-2.15 2.03-2.15 4.93.046.82.28 1.618.687 2.332a5.046 5.046 0 0 1-3.165 1.553c-.776 0-2.402-.74-2.528-1.895a4.923 4.923 0 0 0-1.77 3.82c0 4.565 2.145 9.305 8.261 12.987 0 0 1.728 1.125 1.861 2.045 0 0 0 .103.133.103h7.047c.266 0 .266 0 .266-.103 0-.204.532-1.33 4.254-3.886a14.678 14.678 0 0 0 4.92-5.42.897.897 0 0 0-.798-1.228 2.097 2.097 0 0 1-1.33-1.227s-.266-.818.798-2.659a4.91 4.91 0 0 0 .875-2.455 1.256 1.256 0 0 0-1.728-.715 2.98 2.98 0 0 1-3.8-1.125s-.931-1.637-.133-5.625c.531-3.069-1.33-8.08-3.723-10.637-.665-.613-1.994-.409-2.127.41Z"/><path fill="#3F3F3F" d="m41.973 49.942-4.868 6.605-7.081 5.885 2.882 2.285 5.12-4.135a8.624 8.624 0 0 0 2.835-1.97l4.813-5.231-3.701-3.439Z"/><path fill="#3F3F3F" d="M48.507 45.705v2.073l4.182 4.991c.514.816.779 1.764.763 2.729l.453 9.896c.055 2.07-1.133 2.743-2.054 2.743-.901 0-1.645-.685-1.947-2.51l-.855-9.262-6.877-6.227a3.377 3.377 0 0 1-1.054-2.484 4.531 4.531 0 0 1 .702-2.506l3.322-5.998c1.191-2.225 2.325-2.997 3.892-2.997a3.545 3.545 0 0 1 3.028 3.047l-3.555 6.505ZM54.666 36.523a3.582 3.582 0 1 0 0-7.164 3.582 3.582 0 0 0 0 7.164Z"/><path fill="#F1B31C" d="m42.827 50.538-.907-.842-4.636 6.82-7.773 5.477.637.538 8.153-5.389 4.526-6.604ZM43.315 50.138a3.377 3.377 0 0 1-1.054-2.485 4.53 4.53 0 0 1 .702-2.505l3.322-5.998c1.191-2.225 2.324-2.997 3.892-2.997.43.013.848.14 1.213.367l-8.075 13.618ZM52.04 68.653c-.901 0-1.834-1.201-2.136-3.027l-.855-9.26-.685-.62 2.534.337 1.142 12.57ZM52.058 35.397a3.583 3.583 0 0 1 4.854-5.248 10.533 10.533 0 0 0-4.854 5.248Z"/><path stroke="#000" stroke-linecap="round" stroke-linejoin="round" stroke-width="2" d="M59 45.061h-6.174L48.47 40.21M48.582 36.172s-6.15 1.04-7.464 1.98c-1.679 1.203-4.725 7.137-4.725 7.137M38.981 52.45l-3.019 4.097-2.367 1.536"/><path stroke="#000" stroke-linecap="round" stroke-linejoin="round" stroke-width="2" d="M48.507 45.328v2.45l4.182 4.991c.514.816.779 1.764.763 2.729l.453 9.896c.055 2.07-1.133 2.743-2.054 2.743-.901 0-1.645-.685-1.947-2.51l-.855-9.262-6.877-6.227a3.377 3.377 0 0 1-1.054-2.484 4.53 4.53 0 0 1 .703-2.506l3.322-5.997c1.19-2.226 2.324-2.998 3.891-2.998a2.804 2.804 0 0 1 2.651 2.67"/><path stroke="#000" stroke-linecap="round" stroke-linejoin="round" stroke-width="1.821" d="M25.72 58.528A21.489 21.489 0 0 1 6.672 37.446a34.945 34.945 0 0 1 4.057-15.702c.484 7.601 4.07 10.662 5.85 10.662 1.33 0 2.553-1.355 2.553-3.565.092-2.854.527-7.74 4.343-14.802M25.43.601s14.682 9.895 14.13 26.279a2.01 2.01 0 0 0 2.164 2.117 5.347 5.347 0 0 0 4.142-2.783 15.814 15.814 0 0 1 1.463 3.86"/><path stroke="#000" stroke-linecap="round" stroke-linejoin="round" stroke-width="2" d="m43.81 54.99-3.018 4.097-7.707 5M51.084 32.94a3.583 3.583 0 1 1 3.583 3.583"/></g><defs><clipPath id="a"><path fill="#fff" d="M0 0h72v72H0z"/></clipPath></defs></svg>