<svg xmlns="http://www.w3.org/2000/svg" width="64" height="36" fill="none"><path fill="#B1CC33" d="M63 1.111H1V34.89h62V1.11Z"/><path fill="#61B2E4" d="M63 1.111H1v11.556h62V1.11Z"/><path fill="#fff" stroke="#D22F27" stroke-miterlimit="10" d="M63 12.889H1V23.11h62V12.89Z"/><path fill="#fff" d="M25.25 5.556c.552 0 1-.398 1-.89 0-.49-.448-.888-1-.888s-1 .398-1 .889c0 .49.448.889 1 .889ZM25.25 8.222c.552 0 1-.398 1-.889 0-.49-.448-.889-1-.889s-1 .398-1 .89c0 .49.448.888 1 .888ZM25.25 10.889c.552 0 1-.398 1-.889 0-.49-.448-.889-1-.889s-1 .398-1 .889c0 .49.448.889 1 .889ZM22.25 5.556c.552 0 1-.398 1-.89 0-.49-.448-.888-1-.888s-1 .398-1 .889c0 .49.448.889 1 .889ZM22.25 8.222c.552 0 1-.398 1-.889 0-.49-.448-.889-1-.889s-1 .398-1 .89c0 .49.448.888 1 .888ZM22.25 10.889c.552 0 1-.398 1-.889 0-.49-.448-.889-1-.889s-1 .398-1 .889c0 .49.448.889 1 .889ZM19.25 5.556c.552 0 1-.398 1-.89 0-.49-.448-.888-1-.888s-1 .398-1 .889c0 .49.448.889 1 .889ZM19.25 8.222c.552 0 1-.398 1-.889 0-.49-.448-.889-1-.889s-1 .398-1 .89c0 .49.448.888 1 .888ZM19.25 10.889c.552 0 1-.398 1-.889 0-.49-.448-.889-1-.889s-1 .398-1 .889c0 .49.448.889 1 .889ZM16.25 8.222c.552 0 1-.398 1-.889 0-.49-.448-.889-1-.889s-1 .398-1 .89c0 .49.448.888 1 .888ZM16.25 10.889c.552 0 1-.398 1-.889 0-.49-.448-.889-1-.889s-1 .398-1 .889c0 .49.448.889 1 .889ZM13.25 10.889c.552 0 1-.398 1-.889 0-.49-.448-.889-1-.889s-1 .398-1 .889c0 .49.448.889 1 .889Z"/><path fill="#fff" stroke="#fff" stroke-linecap="round" stroke-linejoin="round" d="M7.297 7.333a2.866 2.866 0 0 1 .742-1.952A3.542 3.542 0 0 1 10 4.281c-.213-.039-.43-.058-.649-.059-.902.035-1.754.378-2.378.958C6.349 5.76 6 6.53 6 7.333c0 .803.349 1.574.973 2.154.624.58 1.476.923 2.378.957.218 0 .436-.02.649-.059a3.542 3.542 0 0 1-1.96-1.1 2.866 2.866 0 0 1-.743-1.952v0Z"/><path stroke="#000" stroke-linecap="round" stroke-linejoin="round" d="M63 1.111H1V34.89h62V1.11Z"/></svg>