<svg xmlns="http://www.w3.org/2000/svg" width="72" height="72" fill="none"><path fill="#92D3F5" d="M10.024 29.724C10.024 18.83 18.403 10 29.442 10 18.985 22.518 28.149 42.377 52.71 40.618c3.467-.248 7.288-1.448 10.258-3.034v24.51a.823.823 0 0 1-.823.823l-52.122.018V29.724Z"/><path fill="#61B2E4" d="M24.511 14.916c-3.113 5.847-4.847 17.211 5.34 27.163 0 0 8.342 10.304 33.118 3.979v-8.872s-9.047 6.185-22.422 1.905c-12.533-4.01-15.825-13.463-15.405-16.918.15-1.22.642-4.921.642-4.921s.684-2.456.445-3.097c-.277-.741-1.495.342-1.718.76Z"/><path fill="#92D3F5" d="M43.307 14.68c1.364 1.553 1.286 3.846-.17 5.126-1.458 1.28-3.745 1.058-5.109-.495 0 0-1.686-1.863-2.458-7.231 0 0-.205-1.075.797-.783 5.224 1.46 6.94 3.383 6.94 3.383Z"/><path fill="#61B2E4" d="M35.612 11.693c3.546-.489 7.467 2.76 7.467 2.76 1.737 1.979 1.514 4.073.057 5.353 0 0-.813-4.434-7.524-8.113Z"/><path stroke="#000" stroke-linecap="round" stroke-linejoin="round" stroke-miterlimit="10" stroke-width="2" d="M62.16 45.777v16.344H10.024V29.434c0-11.963 7.803-19.416 19.418-19.418"/><path stroke="#000" stroke-linecap="round" stroke-linejoin="round" stroke-miterlimit="10" stroke-width="2" d="M62.16 37.314c-2.97 1.561-5.982 2.602-9.45 2.846-24.56 1.73-33.725-17.82-23.268-30.144"/><path stroke="#000" stroke-linecap="round" stroke-linejoin="round" stroke-miterlimit="10" stroke-width="2" d="M62.16 45.777c-3.937 2.19-9.164 2.747-15.49 2.434-28.507-2.654-30.633-29.733-17.228-38.195"/><path stroke="#000" stroke-linecap="round" stroke-linejoin="round" stroke-miterlimit="10" stroke-width="1.9" d="M43.307 14.68c1.364 1.553 1.286 3.846-.17 5.126-1.458 1.28-3.745 1.058-5.109-.495 0 0-1.686-1.863-2.458-7.231 0 0-.205-1.075.797-.783 5.224 1.46 6.94 3.383 6.94 3.383Z"/><path stroke="#000" stroke-linecap="round" stroke-linejoin="round" stroke-miterlimit="10" stroke-width="2" d="M58.8 58.308c-2.79 0-2.79-1.674-5.578-1.674-2.788 0-2.788 1.674-5.575 1.674-2.79 0-2.79-1.674-5.58-1.674-2.792 0-2.792 1.674-5.584 1.674s-2.792-1.674-5.584-1.674"/></svg>