<svg width="72" height="72" viewBox="0 0 72 72" fill="none" xmlns="http://www.w3.org/2000/svg">
<g clip-path="url(#clip0_232_29)">
<path d="M5.6322 37.4464C5.73451 31.9663 7.12444 26.5871 9.68971 21.7435C10.1737 29.3452 13.7597 32.406 15.5397 32.406C16.8693 32.406 18.0921 31.0509 18.0921 28.8407C18.1841 25.9873 18.6192 21.1017 22.4357 14.039C22.7603 14.2288 23.1284 14.3315 23.5044 14.3372C24.9994 14.3372 27.4068 12.7196 25.4308 0.600464C25.4308 0.600464 40.1124 10.4954 39.5601 26.8794C39.5441 27.1656 39.5895 27.452 39.6933 27.7193C39.797 27.9866 39.9567 28.2286 40.1616 28.4291C40.3665 28.6296 40.612 28.784 40.8814 28.8819C41.1509 28.9798 41.4382 29.019 41.724 28.9968C42.5887 28.9046 43.4178 28.603 44.1396 28.1182C44.8613 27.6333 45.454 26.9797 45.8662 26.2141C47.423 29.3447 48.1951 32.807 48.1158 36.3025C48.1158 48.8464 40.3305 58.6608 27.0379 58.6608C15.1992 58.6608 5.6322 48.6871 5.6322 37.7897" fill="#FCEA2B"/>
<path d="M27.1967 21.8784C26.7979 23.4126 25.4683 25.9694 21.6126 30.367C21.4797 30.4699 21.4797 30.5716 21.3468 30.6738C20.9479 31.3897 19.1976 32.7039 19.1976 35.6044C19.2427 36.4242 19.4778 37.2222 19.8842 37.9356C19.0502 38.8172 17.9265 39.3687 16.7189 39.4891C15.9426 39.4891 14.3166 38.7493 14.191 37.5944C13.632 38.0605 13.1833 38.6449 12.8772 39.3053C12.5711 39.9658 12.4153 40.6858 12.4209 41.4137C12.4209 45.9794 14.5662 50.719 20.682 54.4008C20.682 54.4008 22.4104 55.5258 22.5434 56.4463C22.5434 56.4463 22.5434 56.5492 22.6763 56.5492H29.7229C29.9888 56.5492 29.9888 56.5492 29.9888 56.4463C29.9888 56.2418 30.5206 55.1167 34.2433 52.56C36.3145 51.1976 38.0068 49.3328 39.1625 47.1395C39.2154 47.0063 39.2356 46.8623 39.2214 46.7197C39.2071 46.5771 39.159 46.4399 39.0808 46.3197C39.0027 46.1996 38.8969 46.0999 38.7724 46.029C38.6478 45.9581 38.508 45.9181 38.3648 45.9123C38.0656 45.82 37.7909 45.6618 37.5608 45.4494C37.3308 45.2371 37.1512 44.9759 37.0352 44.685V44.685C37.0352 44.685 36.7693 43.8668 37.833 42.026C38.3405 41.3016 38.6429 40.4535 38.7082 39.5714C38.6497 39.4048 38.5568 39.2524 38.4355 39.1242C38.3141 38.9959 38.1671 38.8947 38.004 38.8272C37.8409 38.7596 37.6654 38.7272 37.4889 38.7321C37.3124 38.737 37.1389 38.779 36.9798 38.8555C36.3186 39.1666 35.5662 39.2239 34.8656 39.0165C34.1649 38.8091 33.5649 38.3514 33.1796 37.7306C33.1796 37.7306 32.249 36.0942 33.0467 32.1056C33.5784 29.0374 31.7172 24.0264 29.324 21.4693C28.6592 20.8557 27.3296 21.0602 27.1967 21.8784Z" fill="#F1B31C"/>
<path d="M41.973 49.9423L37.105 56.5473L30.0236 62.4324L32.9059 64.7169L38.0253 60.5816C39.0937 60.123 40.0584 59.4531 40.8613 58.6121L45.6741 53.3807L41.973 49.9423Z" fill="#3F3F3F"/>
<path d="M48.5068 45.7046V47.7775L52.6892 52.7692C53.2029 53.5854 53.4677 54.5334 53.4515 55.4976L53.9049 65.3937C53.9599 67.4632 52.7718 68.1371 51.851 68.1371C50.9498 68.1371 50.2055 67.4521 49.9039 65.6266L49.0487 56.3653L42.1718 50.1383C41.8347 49.8189 41.5671 49.4334 41.3857 49.0059C41.2043 48.5783 41.1131 48.118 41.1177 47.6536C41.102 46.7678 41.3463 45.8968 41.8204 45.1484L45.1424 39.1505C46.3333 36.9254 47.4666 36.1527 49.0341 36.1527C49.8028 36.2592 50.5154 36.6151 51.0624 37.1656C51.6094 37.7161 51.9607 38.4309 52.0623 39.2004L48.5068 45.7046Z" fill="#3F3F3F"/>
<path d="M54.6665 36.5234C56.645 36.5234 58.2489 34.9195 58.2489 32.9409C58.2489 30.9624 56.645 29.3584 54.6665 29.3584C52.6879 29.3584 51.084 30.9624 51.084 32.9409C51.084 34.9195 52.6879 36.5234 54.6665 36.5234Z" fill="#3F3F3F"/>
<path d="M42.827 50.5385L41.9199 49.6957L37.2836 56.516L29.5114 61.9927L30.1476 62.5307L38.3007 57.1423L42.827 50.5385Z" fill="#F1B31C"/>
<path d="M43.3146 50.1381C42.9775 49.8187 42.7099 49.4332 42.5285 49.0057C42.3471 48.5781 42.2559 48.1178 42.2605 47.6534C42.2448 46.7676 42.4891 45.8966 42.9633 45.1482L46.2852 39.1503C47.4761 36.9252 48.6094 36.1525 50.1769 36.1525C50.6066 36.1659 51.0251 36.2927 51.3899 36.5202L43.3146 50.1381Z" fill="#F1B31C"/>
<path d="M52.0402 68.6528C51.1389 68.6528 50.2059 67.452 49.9043 65.6265L49.0488 56.3653L48.3643 55.7455L50.8975 56.0829L52.0402 68.6528Z" fill="#F1B31C"/>
<path d="M52.0584 35.397C51.4356 34.7365 51.0868 33.8643 51.0824 32.9565C51.0781 32.0487 51.4185 31.1732 52.0349 30.5067C52.6513 29.8403 53.4977 29.4327 54.4031 29.3664C55.3084 29.3001 56.2052 29.5799 56.9122 30.1493C54.732 31.2793 53.0151 33.1355 52.0584 35.397V35.397Z" fill="#F1B31C"/>
<path d="M59 45.0614H52.8258L48.4708 40.2093" stroke="black" stroke-width="2" stroke-linecap="round" stroke-linejoin="round"/>
<path d="M48.5818 36.1716C48.5818 36.1716 42.4317 37.2115 41.1176 38.1528C39.439 39.3551 36.3932 45.2888 36.3932 45.2888" stroke="black" stroke-width="2" stroke-linecap="round" stroke-linejoin="round"/>
<path d="M38.9815 52.4508L35.9622 56.5472L33.5952 58.0828" stroke="black" stroke-width="2" stroke-linecap="round" stroke-linejoin="round"/>
<path d="M48.5069 45.3275V47.7775L52.6893 52.7692C53.203 53.5854 53.4679 54.5334 53.4517 55.4976L53.905 65.3937C53.9601 67.4632 52.772 68.1371 51.8512 68.1371C50.9499 68.1371 50.2056 67.4521 49.904 65.6266L49.0488 56.3653L42.1719 50.1383C41.8348 49.8189 41.5672 49.4334 41.3858 49.0059C41.2044 48.5784 41.1132 48.118 41.1178 47.6537C41.1021 46.7678 41.3464 45.8969 41.8206 45.1484L45.1425 39.1506C46.3334 36.9254 47.4667 36.1527 49.0342 36.1527C49.7286 36.1899 50.3844 36.4837 50.8743 36.9772C51.3642 37.4707 51.6532 38.1287 51.6853 38.8233" stroke="black" stroke-width="2" stroke-linecap="round" stroke-linejoin="round"/>
<path d="M25.7195 58.5284C20.5229 57.9344 15.7213 55.4654 12.2149 51.5843C8.70855 47.7032 6.73806 42.6765 6.67285 37.4464C6.77516 31.9664 8.16509 26.5872 10.7304 21.7435C11.2143 29.3452 14.8003 32.4061 16.5804 32.4061C17.9099 32.4061 19.1328 31.051 19.1328 28.8407C19.2248 25.9873 19.6598 21.1018 23.4763 14.0391" stroke="black" stroke-width="1.8212" stroke-linecap="round" stroke-linejoin="round"/>
<path d="M25.4309 0.600952C25.4309 0.600952 40.1125 10.4959 39.5603 26.8799C39.5443 27.1661 39.5898 27.4524 39.6935 27.7196C39.7973 27.9869 39.957 28.2288 40.1619 28.4293C40.3668 28.6297 40.6122 28.7841 40.8817 28.882C41.1511 28.9798 41.4383 29.019 41.7241 28.9968C42.5888 28.9047 43.4179 28.6031 44.1397 28.1182C44.8615 27.6333 45.4541 26.9797 45.8663 26.2141C46.5204 27.4312 47.0121 28.7287 47.329 30.0736" stroke="black" stroke-width="1.8212" stroke-linecap="round" stroke-linejoin="round"/>
<path d="M43.8109 54.9905L40.7917 59.0869L33.0847 64.0867" stroke="black" stroke-width="2" stroke-linecap="round" stroke-linejoin="round"/>
<path d="M51.0845 32.9409C51.0845 32.2324 51.2946 31.5398 51.6882 30.9506C52.0819 30.3615 52.6414 29.9023 53.296 29.6312C53.9506 29.36 54.6709 29.2891 55.3659 29.4273C56.0608 29.5655 56.6991 29.9067 57.2001 30.4077C57.7012 30.9088 58.0424 31.5471 58.1806 32.242C58.3188 32.937 58.2479 33.6573 57.9767 34.3119C57.7056 34.9665 57.2464 35.526 56.6573 35.9197C56.0681 36.3133 55.3755 36.5234 54.6669 36.5234" stroke="black" stroke-width="2" stroke-linecap="round" stroke-linejoin="round"/>
</g>
<defs>
<clipPath id="clip0_232_29">
<rect width="72" height="72" fill="white"/>
</clipPath>
</defs>
</svg>
