<svg width="72" height="72" viewBox="0 0 72 72" fill="none" xmlns="http://www.w3.org/2000/svg">
<path d="M39.8074 51H30.8074C18.1049 51 7.80737 36.0457 7.80737 25H2.80737C2.80737 37.7025 13.1049 55 25.8074 55H34.8074" fill="#F1B31C"/>
<path d="M39.8074 51H30.8074C18.1049 51 7.80737 36.0457 7.80737 25H2.80737C2.80737 37.7025 13.1049 55 25.8074 55H34.8074" stroke="#F1B31C" stroke-width="2" stroke-miterlimit="10" stroke-linecap="round" stroke-linejoin="round"/>
<path d="M49.0532 33.1949C49.0532 33.1849 49.0532 33.1749 49.0432 33.1649C48.8032 32.4149 48.4832 31.7048 48.0632 31.0249C47.9332 30.7949 47.7832 30.5649 47.6232 30.3549L48.2532 31.6149C48.6532 32.9149 48.8732 34.3049 48.8732 35.7349C48.8732 39.7449 47.1932 43.3549 44.4932 45.9049C44.5332 45.9349 44.5732 45.9649 44.6132 46.0049L44.9732 46.4349L47.4032 43.1849L47.7932 42.5949C49.6132 39.8749 50.0732 36.3248 49.0532 33.1949ZM57.8032 35.7048C57.5232 26.6749 52.1632 18.5649 44.3432 14.8649C43.8032 14.5949 43.2432 14.3549 42.6732 14.1349C42.3132 14.0049 41.9532 13.8749 41.5832 13.7648C41.2232 13.6448 40.8432 13.5449 40.4732 13.4449C38.6632 12.9548 36.7732 12.7048 34.8032 12.7048C25.6632 12.7048 17.7532 18.0449 14.0732 25.7749C13.9132 26.1149 13.7632 26.4449 13.6132 26.7949C13.3232 27.4849 13.0632 28.1849 12.8432 28.9049C12.7232 29.2648 12.6232 29.6349 12.5332 29.9949C12.4532 30.3049 12.3732 30.6149 12.3132 30.9249C12.2832 31.0349 12.2632 31.1448 12.2432 31.2648C12.1732 31.5848 12.1232 31.9149 12.0732 32.2449C12.0132 32.5949 11.9732 32.9449 11.9332 33.3049C11.8432 34.1049 11.8032 34.9249 11.8032 35.7449C11.8032 36.5549 11.8432 37.3649 11.9332 38.1549C11.9632 38.5249 12.0132 38.8948 12.0732 39.2549C12.1332 39.6249 12.2032 39.9849 12.2732 40.3348C12.3332 40.6049 12.3932 40.8849 12.4532 41.1549C12.5232 41.4249 12.5932 41.6849 12.6632 41.9548C12.8932 42.7549 12.3128 43.8183 12.6128 44.5883C13.7428 47.3783 15.9698 51.0322 18.0397 53.1522C18.7497 53.8922 19.7832 53.1549 20.5932 53.7749C20.6032 53.7849 20.6032 53.7849 20.6132 53.7849C24.5232 56.8749 29.4532 58.7048 34.8032 58.7048C40.6932 58.7048 46.1432 56.4949 50.2632 52.8549C50.5932 52.5649 50.9032 52.2749 51.2132 51.9548C51.9832 51.2048 52.6932 50.3948 53.3432 49.5349C56.1132 45.9049 57.7732 41.4249 57.8132 36.5748C57.8132 36.2849 57.8132 35.9949 57.8032 35.7048ZM43.1332 45.8248C40.8632 47.1549 33.9732 50.3849 25.7232 46.3948C22.7232 43.8248 20.1896 40.2884 20.1896 36.0183C20.1896 28.2683 27.1032 21.7048 34.8432 21.7048C38.2932 21.7048 41.4432 22.9449 43.8832 25.0148L46.5367 27.6349L47.7366 30.0249L47.4132 30.0549C47.4832 30.1549 47.5632 30.2549 47.6232 30.3549L48.2532 31.6149C48.6532 32.9149 48.8732 34.3049 48.8732 35.7349C48.8732 39.7449 47.1932 43.3549 44.4932 45.9049C44.1032 45.6049 43.5632 45.5649 43.1332 45.8248ZM49.0532 33.1949C49.0532 33.1849 49.0532 33.1749 49.0432 33.1649C48.8032 32.4149 48.4832 31.7048 48.0632 31.0249C47.9332 30.7949 47.7832 30.5649 47.6232 30.3549L48.2532 31.6149C48.6532 32.9149 48.8732 34.3049 48.8732 35.7349C48.8732 39.7449 47.1932 43.3549 44.4932 45.9049C44.5332 45.9349 44.5732 45.9649 44.6132 46.0049L44.9732 46.4349L47.4032 43.1849L47.7932 42.5949C49.6132 39.8749 50.0732 36.3248 49.0532 33.1949Z" fill="#FCEA2B"/>
<path d="M58.7332 38.03C58.6732 38.78 58.6032 39.23 58.6032 39.23C58.6032 44.07 56.0932 47.28 53.3432 49.79C52.1932 50.84 51.0032 51.77 49.9332 52.64C49.7132 52.82 49.5032 52.99 49.2932 53.16C48.4232 53.9 47.6732 54.6 47.1432 55.31L47.9332 51.12L48.0732 50.41L50.6732 36.67L49.0532 33.45C49.0532 33.44 49.0532 33.43 49.0432 33.42L48.2532 31.87L47.6232 30.61L47.7366 30.28L46.5367 27.89L44.7336 25.27L41.4132 22.53L40.6632 21.7L44.3432 15.12L44.3632 15.08L44.6732 14.52C51.6232 17.41 56.2132 23.78 57.9432 29.55C58.0332 29.85 58.1032 30.18 58.1732 30.47C58.9432 33.49 58.8632 36.45 58.7332 38.03Z" fill="#F1B31C"/>
<path d="M44.4931 46.16C41.9831 48.56 38.5931 50.02 34.8431 50.02C31.3631 50.02 28.1731 48.75 25.7231 46.65C33.9731 50.64 40.8631 47.41 43.1331 46.08C43.5631 45.82 44.1031 45.86 44.4931 46.16Z" fill="white"/>
<path d="M69.1631 51.6L65.7831 54.2C62.8831 50.44 57.9031 49.23 53.7231 50.95L51.2131 52.21L50.0531 52.79L49.3031 53.17L49.2931 53.16L47.9331 51.12L44.9831 46.7L44.9731 46.69L47.4031 43.44L47.7931 42.85C49.6131 40.13 50.0731 36.58 49.0531 33.45C49.0531 33.44 49.0531 33.43 49.0431 33.42C48.8031 32.67 48.4831 31.96 48.0631 31.28C47.9331 31.05 47.7831 30.82 47.6231 30.61C47.5631 30.51 47.4831 30.41 47.4131 30.31L47.4531 30.28L47.6031 30.16L50.7931 27.71L57.8131 36.83L58.7331 38.03L69.1631 51.6Z" fill="#FCEA2B" stroke="#FCEA2B" stroke-width="2" stroke-miterlimit="10" stroke-linecap="round" stroke-linejoin="round"/>
<path d="M49.8431 54.61C35.3031 64.08 22.0231 57.03 18.0431 54.44C17.4331 54.05 17.3231 53.22 17.7631 52.67C17.7831 52.63 17.8231 52.59 17.8531 52.56L18.3231 51.99L21.4331 48.25L23.1131 46.23C23.5031 45.84 24.1031 45.78 24.5831 46.05C24.9631 46.26 25.3531 46.46 25.7231 46.65C33.9731 50.64 40.8631 47.41 43.1331 46.08C43.5631 45.82 44.1031 45.86 44.4931 46.16C44.5331 46.19 44.5731 46.22 44.6131 46.26L44.9731 46.69L44.9831 46.7L48.0731 50.41L49.9331 52.64L50.0131 52.74C50.0331 52.76 50.0431 52.77 50.0531 52.79C50.1431 52.89 50.2131 52.99 50.2631 53.11C50.4931 53.63 50.3431 54.28 49.8431 54.61Z" fill="#A57939"/>
<path d="M8.61057 30.6932C8.08687 28.7456 7.80737 26.8198 7.80737 25H2.80737C2.80737 31.0533 5.14587 38.15 8.96867 43.9211" stroke="black" stroke-width="2" stroke-linecap="round" stroke-linejoin="round"/>
<path d="M56.8664 29.4674C54.0513 19.9468 45.2406 13 34.8074 13C22.1049 13 11.8074 23.2975 11.8074 36C11.8074 40.7187 13.2284 45.1055 15.6658 48.7559" stroke="black" stroke-width="2" stroke-linecap="round" stroke-linejoin="round"/>
<path d="M46.1575 26.1927C43.407 23.0123 39.3422 21 34.8074 21C26.5231 21 19.8074 27.7157 19.8074 36C19.8074 38.3463 20.3461 40.5667 21.3065 42.5444" stroke="black" stroke-width="2" stroke-linecap="round" stroke-linejoin="round"/>
<path d="M47.4032 43.44L47.7932 42.85C49.6132 40.13 50.0732 36.58 49.0532 33.45C49.0532 33.44 49.0532 33.43 49.0432 33.42C48.8032 32.67 48.4832 31.96 48.0632 31.28C47.9332 31.05 47.7832 30.82 47.6232 30.61C47.5632 30.51 47.4832 30.41 47.4132 30.31L47.4532 30.28L47.6032 30.16L50.7932 27.71L57.8132 36.83L58.7332 38.03L69.1632 51.6L65.7832 54.2C62.8832 50.44 57.9032 49.23 53.7232 50.95" stroke="black" stroke-width="2" stroke-linecap="round" stroke-linejoin="round"/>
<path d="M49.8431 54.61C35.3031 64.08 22.0231 57.03 18.0431 54.44C17.4331 54.05 17.3231 53.22 17.7631 52.67C17.7831 52.63 17.8231 52.59 17.8531 52.56L18.3231 51.99L21.4331 48.25L23.1131 46.23C23.5031 45.84 24.1031 45.78 24.5831 46.05C24.9631 46.26 25.3531 46.46 25.7231 46.65C33.9731 50.64 40.8631 47.41 43.1331 46.08C43.5631 45.82 44.1031 45.86 44.4931 46.16C44.5331 46.19 44.5731 46.22 44.6131 46.26L44.9731 46.69L44.9831 46.7L48.0731 50.41L49.9331 52.64L50.0131 52.74C50.0331 52.76 50.0431 52.77 50.0531 52.79C50.1431 52.89 50.2131 52.99 50.2631 53.11C50.4931 53.63 50.3431 54.28 49.8431 54.61Z" stroke="black" stroke-width="2.1425" stroke-linecap="round" stroke-linejoin="round"/>
</svg>
