<svg width="64" height="36" viewBox="0 0 64 36" fill="none" xmlns="http://www.w3.org/2000/svg">
<path d="M63 1.11111H1V34.8889H63V1.11111Z" fill="#B1CC33"/>
<path d="M63 1.11111H1V12.6667H63V1.11111Z" fill="#61B2E4"/>
<path d="M63 12.8889H1V23.1111H63V12.8889Z" fill="white" stroke="#D22F27" stroke-miterlimit="10"/>
<path d="M25.25 5.55555C25.8023 5.55555 26.25 5.15758 26.25 4.66666C26.25 4.17574 25.8023 3.77777 25.25 3.77777C24.6977 3.77777 24.25 4.17574 24.25 4.66666C24.25 5.15758 24.6977 5.55555 25.25 5.55555Z" fill="white"/>
<path d="M25.25 8.22223C25.8023 8.22223 26.25 7.82427 26.25 7.33335C26.25 6.84243 25.8023 6.44446 25.25 6.44446C24.6977 6.44446 24.25 6.84243 24.25 7.33335C24.25 7.82427 24.6977 8.22223 25.25 8.22223Z" fill="white"/>
<path d="M25.25 10.8889C25.8023 10.8889 26.25 10.4909 26.25 10C26.25 9.50908 25.8023 9.11111 25.25 9.11111C24.6977 9.11111 24.25 9.50908 24.25 10C24.25 10.4909 24.6977 10.8889 25.25 10.8889Z" fill="white"/>
<path d="M22.25 5.55555C22.8023 5.55555 23.25 5.15758 23.25 4.66666C23.25 4.17574 22.8023 3.77777 22.25 3.77777C21.6977 3.77777 21.25 4.17574 21.25 4.66666C21.25 5.15758 21.6977 5.55555 22.25 5.55555Z" fill="white"/>
<path d="M22.25 8.22223C22.8023 8.22223 23.25 7.82427 23.25 7.33335C23.25 6.84243 22.8023 6.44446 22.25 6.44446C21.6977 6.44446 21.25 6.84243 21.25 7.33335C21.25 7.82427 21.6977 8.22223 22.25 8.22223Z" fill="white"/>
<path d="M22.25 10.8889C22.8023 10.8889 23.25 10.4909 23.25 10C23.25 9.50908 22.8023 9.11111 22.25 9.11111C21.6977 9.11111 21.25 9.50908 21.25 10C21.25 10.4909 21.6977 10.8889 22.25 10.8889Z" fill="white"/>
<path d="M19.25 5.55555C19.8023 5.55555 20.25 5.15758 20.25 4.66666C20.25 4.17574 19.8023 3.77777 19.25 3.77777C18.6977 3.77777 18.25 4.17574 18.25 4.66666C18.25 5.15758 18.6977 5.55555 19.25 5.55555Z" fill="white"/>
<path d="M19.25 8.22223C19.8023 8.22223 20.25 7.82427 20.25 7.33335C20.25 6.84243 19.8023 6.44446 19.25 6.44446C18.6977 6.44446 18.25 6.84243 18.25 7.33335C18.25 7.82427 18.6977 8.22223 19.25 8.22223Z" fill="white"/>
<path d="M19.25 10.8889C19.8023 10.8889 20.25 10.4909 20.25 10C20.25 9.50908 19.8023 9.11111 19.25 9.11111C18.6977 9.11111 18.25 9.50908 18.25 10C18.25 10.4909 18.6977 10.8889 19.25 10.8889Z" fill="white"/>
<path d="M16.25 8.22223C16.8023 8.22223 17.25 7.82427 17.25 7.33335C17.25 6.84243 16.8023 6.44446 16.25 6.44446C15.6977 6.44446 15.25 6.84243 15.25 7.33335C15.25 7.82427 15.6977 8.22223 16.25 8.22223Z" fill="white"/>
<path d="M16.25 10.8889C16.8023 10.8889 17.25 10.4909 17.25 10C17.25 9.50908 16.8023 9.11111 16.25 9.11111C15.6977 9.11111 15.25 9.50908 15.25 10C15.25 10.4909 15.6977 10.8889 16.25 10.8889Z" fill="white"/>
<path d="M13.25 10.8889C13.8023 10.8889 14.25 10.4909 14.25 10C14.25 9.50908 13.8023 9.11111 13.25 9.11111C12.6977 9.11111 12.25 9.50908 12.25 10C12.25 10.4909 12.6977 10.8889 13.25 10.8889Z" fill="white"/>
<path d="M7.2973 7.33334C7.28509 6.62615 7.54708 5.93678 8.03925 5.38105C8.53143 4.82531 9.22378 4.43709 10 4.28161C9.78661 4.24241 9.5693 4.22252 9.3514 4.22223C8.44944 4.25705 7.59742 4.60005 6.97304 5.17968C6.34866 5.75932 6.00012 6.53084 6.00012 7.33334C6.00012 8.13584 6.34866 8.90736 6.97304 9.487C7.59742 10.0666 8.44944 10.4096 9.3514 10.4445C9.5693 10.4442 9.78661 10.4243 10 10.3851C9.22378 10.2296 8.53143 9.84137 8.03925 9.28564C7.54708 8.7299 7.28509 8.04053 7.2973 7.33334V7.33334Z" fill="white" stroke="white" stroke-linecap="round" stroke-linejoin="round"/>
<path d="M63 1.11111H1V34.8889H63V1.11111Z" stroke="black" stroke-linecap="round" stroke-linejoin="round"/>
</svg>
