<svg width="72" height="72" viewBox="0 0 72 72" fill="none" xmlns="http://www.w3.org/2000/svg">
<path d="M10.0238 29.7236C10.0238 18.8303 18.4027 10 29.4418 10C18.9848 22.5179 28.1494 42.3769 52.7106 40.6185C56.1779 40.3703 59.9988 39.1704 62.9695 37.5845V62.094C62.9695 62.5488 62.6009 62.9174 62.1461 62.9175L10.0238 62.9352V29.7236Z" fill="#92D3F5"/>
<path d="M24.5114 14.9159C21.3982 20.7633 19.6638 32.1271 29.8516 42.0786C29.8516 42.0786 38.1927 52.3829 62.9694 46.0579V37.1859C62.9694 37.1859 53.9218 43.3708 40.5466 39.0909C28.0135 35.0804 24.722 25.6277 25.1424 22.1735C25.2911 20.9521 25.7842 17.2518 25.7842 17.2518C25.7842 17.2518 26.4675 14.7959 26.2285 14.1554C25.9519 13.4137 24.7344 14.4972 24.5114 14.9159Z" fill="#61B2E4"/>
<path d="M43.3073 14.68C44.6713 16.2331 44.5932 18.5264 43.1362 19.806C41.6791 21.0857 39.3922 20.8638 38.0282 19.3106C38.0282 19.3106 36.3417 17.4485 35.5698 12.08C35.5698 12.08 35.3654 11.0047 36.3671 11.2974C41.5911 12.7562 43.3073 14.68 43.3073 14.68Z" fill="#92D3F5"/>
<path d="M35.6116 11.6926C39.158 11.2044 43.0787 14.4528 43.0787 14.4528C44.8164 16.4315 44.5931 18.5262 43.136 19.8057C43.1359 19.8057 42.3232 15.3724 35.6116 11.6926Z" fill="#61B2E4"/>
<path d="M62.1603 45.7774V62.121H10.0238V29.4338C10.0238 17.4705 17.8272 10.0184 29.4417 10.0159" stroke="black" stroke-width="2" stroke-miterlimit="10" stroke-linecap="round" stroke-linejoin="round"/>
<path d="M62.1604 37.3138C59.1897 38.8751 56.178 39.9155 52.7107 40.1598C28.1495 41.8909 18.9849 22.3397 29.4418 10.0159" stroke="black" stroke-width="2" stroke-miterlimit="10" stroke-linecap="round" stroke-linejoin="round"/>
<path d="M62.1603 45.7774C58.2229 47.9667 52.9956 48.5239 46.6694 48.2113C18.1628 45.5571 16.0368 18.4777 29.4417 10.0159" stroke="black" stroke-width="2" stroke-miterlimit="10" stroke-linecap="round" stroke-linejoin="round"/>
<path d="M43.3073 14.68C44.6713 16.2332 44.5932 18.5264 43.1362 19.8061C41.6791 21.0857 39.3922 20.8638 38.0282 19.3106C38.0282 19.3106 36.3417 17.4485 35.5698 12.08C35.5698 12.08 35.3654 11.0048 36.3671 11.2975C41.5911 12.7562 43.3073 14.68 43.3073 14.68Z" stroke="black" stroke-width="1.9" stroke-miterlimit="10" stroke-linecap="round" stroke-linejoin="round"/>
<path d="M58.7999 58.3078C56.0108 58.3078 56.0108 56.6338 53.2217 56.6338C50.4341 56.6338 50.4341 58.3078 47.6466 58.3078C44.8565 58.3078 44.8565 56.6338 42.0665 56.6338C39.2746 56.6338 39.2746 58.3078 36.4826 58.3078C33.6906 58.3078 33.6907 56.6338 30.8987 56.6338" stroke="black" stroke-width="2" stroke-miterlimit="10" stroke-linecap="round" stroke-linejoin="round"/>
</svg>
