<svg width="36" height="20" viewBox="0 0 36 20" fill="none" xmlns="http://www.w3.org/2000/svg">
<g clip-path="url(#clip0_927_118)">
<path d="M35.0001 0.617224H0.555664V19.3833H35.0001V0.617224Z" fill="#B1CC33"/>
<path d="M35.0001 0.617224H0.555664V7.03722H35.0001V0.617224Z" fill="#61B2E4"/>
<path d="M35.0001 7.16055H0.555664V12.8389H35.0001V7.16111V7.16055Z" fill="white" stroke="#D22F27" stroke-miterlimit="10"/>
<path d="M14.0279 3.08667C14.3346 3.08667 14.5834 2.86556 14.5834 2.59223C14.5834 2.32 14.3346 2.09889 14.0279 2.09889C13.7212 2.09889 13.4723 2.32 13.4723 2.59278C13.4723 2.865 13.7212 3.08667 14.0279 3.08667ZM14.0279 4.56778C14.3346 4.56778 14.5834 4.34667 14.5834 4.07389C14.5834 3.80167 14.3346 3.58 14.0279 3.58C13.7212 3.58 13.4723 3.80111 13.4723 4.07445C13.4723 4.34667 13.7212 4.56778 14.0279 4.56778ZM14.0279 6.04945C14.3346 6.04945 14.5834 5.82834 14.5834 5.55556C14.5834 5.28334 14.3346 5.06167 14.0279 5.06167C13.7212 5.06167 13.4723 5.28278 13.4723 5.55556C13.4723 5.82778 13.7212 6.04945 14.0279 6.04945ZM12.3612 3.08667C12.6679 3.08667 12.9168 2.86556 12.9168 2.59223C12.9168 2.32 12.6679 2.09889 12.3612 2.09889C12.0546 2.09889 11.8057 2.32 11.8057 2.59278C11.8057 2.865 12.0546 3.08667 12.3612 3.08667ZM12.3612 4.56778C12.6679 4.56778 12.9168 4.34667 12.9168 4.07389C12.9168 3.80167 12.6679 3.58 12.3612 3.58C12.0546 3.58 11.8057 3.80111 11.8057 4.07445C11.8057 4.34667 12.0546 4.56778 12.3612 4.56778ZM12.3612 6.04945C12.6679 6.04945 12.9168 5.82834 12.9168 5.55556C12.9168 5.28334 12.6679 5.06167 12.3612 5.06167C12.0546 5.06167 11.8057 5.28278 11.8057 5.55556C11.8057 5.82778 12.0546 6.04945 12.3612 6.04945ZM10.6946 3.08667C11.0012 3.08667 11.2501 2.86556 11.2501 2.59223C11.2501 2.32 11.0012 2.09889 10.6946 2.09889C10.3879 2.09889 10.139 2.32 10.139 2.59278C10.139 2.865 10.3879 3.08667 10.6946 3.08667ZM10.6946 4.56778C11.0012 4.56778 11.2501 4.34667 11.2501 4.07389C11.2501 3.80167 11.0012 3.58 10.6946 3.58C10.3879 3.58 10.139 3.80111 10.139 4.07445C10.139 4.34667 10.3879 4.56778 10.6946 4.56778ZM10.6946 6.04945C11.0012 6.04945 11.2501 5.82834 11.2501 5.55556C11.2501 5.28334 11.0012 5.06167 10.6946 5.06167C10.3879 5.06167 10.139 5.28278 10.139 5.55556C10.139 5.82778 10.3879 6.04945 10.6946 6.04945ZM9.02789 4.56778C9.33455 4.56778 9.58344 4.34667 9.58344 4.07389C9.58344 3.80167 9.33455 3.58 9.02789 3.58C8.72122 3.58 8.47233 3.80111 8.47233 4.07445C8.47233 4.34667 8.72122 4.56778 9.02789 4.56778ZM9.02789 6.04945C9.33455 6.04945 9.58344 5.82834 9.58344 5.55556C9.58344 5.28334 9.33455 5.06167 9.02789 5.06167C8.72122 5.06167 8.47233 5.28278 8.47233 5.55556C8.47233 5.82778 8.72122 6.04945 9.02789 6.04945ZM7.36122 6.04945C7.66789 6.04945 7.91678 5.82834 7.91678 5.55556C7.91678 5.28334 7.66789 5.06167 7.36122 5.06167C7.05455 5.06167 6.80566 5.28278 6.80566 5.55556C6.80566 5.82778 7.05455 6.04945 7.36122 6.04945Z" fill="white"/>
<path d="M4.05405 4.07389C4.05019 3.67343 4.19738 3.28622 4.46627 2.98945C4.75341 2.67283 5.13584 2.45831 5.55572 2.37834C5.43739 2.35667 5.31683 2.34611 5.19516 2.34556C4.69405 2.365 4.22072 2.55556 3.87405 2.87778C3.52739 3.2 3.3335 3.62778 3.3335 4.07389C3.3335 4.52 3.52739 4.94834 3.87405 5.27056C4.22072 5.59278 4.69405 5.78334 5.19516 5.80222C5.31627 5.80222 5.43739 5.79111 5.55572 5.76945C5.13604 5.68936 4.75382 5.47485 4.46683 5.15834C4.19773 4.86164 4.05034 4.47443 4.05405 4.07389Z" fill="white" stroke="white" stroke-linecap="round" stroke-linejoin="round"/>
<path d="M35.0001 0.617224H0.555664V19.3833H35.0001V0.617224Z" stroke="black" stroke-linecap="round" stroke-linejoin="round"/>
</g>
<defs>
<clipPath id="clip0_927_118">
<rect width="35.5556" height="20" fill="white"/>
</clipPath>
</defs>
</svg>
